#N canvas 397 39 1101 556 12;
#X obj 75 313 fiddle~ 1024 1 20 3;
#X obj 74 33 adc~;
#X obj 75 144 *~;
#X text 110 32 Entrada de Audio;
#X obj 75 383 pack 0 100;
#X obj 96 102 hsl 100 15 0 1 0 0 empty empty empty -2 -8 0 10 -262144
-1 -1 0 1;
#X floatatom 96 118 5 0 0 0 - - -;
#X obj 76 269 *~ 1;
#X obj 701 511 sendOSC 12000;
#X msg 805 371 [;
#X msg 738 371 ];
#X msg 701 72 connect localhost 12000;
#X msg 710 114 disconnect;
#X obj 738 289 t b list b;
#X obj 701 33 loadbang;
#X obj 75 413 line;
#X obj 172 413 line;
#X obj 101 246 tgl 15 0 empty empty empty 17 7 0 10 -262144 -1 -1 0
1;
#X obj 230 84 vsl 15 100 0 127 0 0 empty empty empty 0 -9 0 10 -262144
-1 -1 5457 1;
#X floatatom 230 198 5 0 0 0 - - -;
#X msg 271 62 70;
#X obj 271 36 loadbang;
#N canvas 449 115 486 380 ruido 0;
#X obj 144 167 env~;
#X floatatom 144 203 5 0 0 0 - - -;
#X obj 144 312 tgl 15 0 empty empty empty 17 7 0 10 -262144 -1 -1 0
1;
#X obj 144 284 change;
#X obj 144 105 inlet~;
#X text 60 102 audio in;
#X obj 254 105 inlet;
#X obj 144 338 outlet;
#X text 309 103 umbral nivel;
#X obj 144 248 > 60;
#X text 132 26 UMBRAL RUIDO;
#X connect 0 0 1 0;
#X connect 1 0 9 0;
#X connect 2 0 7 0;
#X connect 3 0 2 0;
#X connect 4 0 0 0;
#X connect 6 0 9 1;
#X connect 9 0 3 0;
#X restore 101 217 pd ruido;
#X obj 172 383 pack 0 50;
#X obj 172 443 s amp;
#X obj 75 443 s fre;
#X obj 635 238 r fre;
#X text 215 313 FFT;
#X text 271 199 Umbral de Ruido;
#X text 136 119 Amplitud;
#X text 119 243 Compuerta-Filtro;
#X text 58 465 Frecuencia;
#X text 163 465 Amplitud;
#N canvas 0 0 450 300 gemwin 0;
#X obj 132 136 gemwin;
#X obj 67 89 outlet;
#X obj 67 10 inlet;
#X msg 67 70 set destroy;
#X msg 132 112 create \, 1;
#X msg 198 112 destroy;
#X msg 156 71 set create;
#X obj 67 41 route create;
#X connect 2 0 7 0;
#X connect 3 0 1 0;
#X connect 4 0 0 0;
#X connect 5 0 0 0;
#X connect 6 0 1 0;
#X connect 7 0 3 0;
#X connect 7 0 4 0;
#X connect 7 1 6 0;
#X connect 7 1 5 0;
#X restore 519 67 pd gemwin;
#X msg 519 36 destroy;
#X obj 413 34 gemhead;
#X obj 413 61 pix_video;
#X obj 413 209 pix_texture;
#X obj 413 99 alpha;
#X obj 457 178 pix_blob;
#X obj 413 137 pix_movement 0.2;
#X obj 413 261 rectangle 4 3;
#X obj 533 198 s mov;
#X msg 771 463 send /fre \$1 \, send /amp \$2 \, send /mov \$3;
#X obj 738 195 r amp;
#X obj 738 258 pack f f f;
#X obj 835 210 r mov;
#X obj 835 238 t b f;
#X obj 738 225 t b f;
#X connect 0 0 4 0;
#X connect 0 3 23 0;
#X connect 1 0 2 0;
#X connect 2 0 7 0;
#X connect 2 0 22 0;
#X connect 4 0 15 0;
#X connect 5 0 6 0;
#X connect 5 0 2 1;
#X connect 7 0 0 0;
#X connect 9 0 8 0;
#X connect 10 0 8 0;
#X connect 11 0 8 0;
#X connect 12 0 8 0;
#X connect 13 0 10 0;
#X connect 13 1 43 0;
#X connect 13 2 9 0;
#X connect 14 0 11 0;
#X connect 15 0 25 0;
#X connect 16 0 24 0;
#X connect 17 0 7 1;
#X connect 18 0 19 0;
#X connect 19 0 22 1;
#X connect 20 0 18 0;
#X connect 21 0 20 0;
#X connect 22 0 17 0;
#X connect 23 0 16 0;
#X connect 26 0 45 0;
#X connect 33 0 34 0;
#X connect 34 0 33 0;
#X connect 35 0 36 0;
#X connect 36 0 38 0;
#X connect 37 0 41 0;
#X connect 38 0 40 0;
#X connect 39 3 42 0;
#X connect 40 0 39 0;
#X connect 40 0 37 0;
#X connect 43 0 8 0;
#X connect 44 0 48 0;
#X connect 45 0 13 0;
#X connect 46 0 47 0;
#X connect 47 0 45 0;
#X connect 47 1 45 2;
#X connect 48 0 45 0;
#X connect 48 1 45 1;
